<svg xmlns="http://www.w3.org/2000/svg" viewBox="0 0 35.28 36"><defs><style>.cls-1{fill:#3e82f1;}.cls-1,.cls-2,.cls-3,.cls-4{fill-rule:evenodd;}.cls-2{fill:#32a753;}.cls-3{fill:#f9bb00;}.cls-4{fill:#e74235;}</style></defs><g id="Layer_2" data-name="Layer 2"><g id="AW"><path class="cls-1" d="M35.28,18.41A20,20,0,0,0,35,14.73H18v7h9.69a8.29,8.29,0,0,1-3.59,5.43v4.52h5.81a17.53,17.53,0,0,0,5.37-13.23Z"/><path class="cls-2" d="M18,36a17.18,17.18,0,0,0,11.91-4.36L24.1,27.12A10.86,10.86,0,0,1,18,28.84,10.72,10.72,0,0,1,7.93,21.42h-6v4.66A18,18,0,0,0,18,36Z"/><path class="cls-3" d="M7.93,21.42a10.54,10.54,0,0,1,0-6.84V9.92h-6a18,18,0,0,0,0,16.16l6-4.66Z"/><path class="cls-4" d="M18,7.16a9.73,9.73,0,0,1,6.88,2.69L30,4.69A17.26,17.26,0,0,0,18,0,18,18,0,0,0,1.91,9.92l6,4.66A10.72,10.72,0,0,1,18,7.16Z"/></g></g></svg>