<svg xmlns="http://www.w3.org/2000/svg" viewBox="0 0 193.33 198.13"><defs><style>.cls-1{fill:#00ce75;}.cls-2{fill:#89e0b8;}</style></defs><g id="Layer_2" data-name="Layer 2"><g id="AW"><path class="cls-1" d="M129.14,80.58h0a8.75,8.75,0,0,0-12.38,0l-31,31-9.31-9.31a8.75,8.75,0,0,0-12.38,12.38l21.69,21.69L129.14,93A8.75,8.75,0,0,0,129.14,80.58Z"/><path class="cls-2" d="M96.73,13.87a87.44,87.44,0,1,0,87.44,87.44A87.43,87.43,0,0,0,96.73,13.87Zm0,152.93a65.49,65.49,0,1,1,65.49-65.49A65.49,65.49,0,0,1,96.73,166.8Z"/><circle class="cls-1" cx="19.92" cy="20.79" r="11.63"/><circle class="cls-2" cx="4.58" cy="49.1" r="4.58"/><circle class="cls-2" cx="4.58" cy="157.93" r="4.58"/><circle class="cls-2" cx="31.25" cy="193.55" r="4.58"/><circle class="cls-2" cx="188.75" cy="157.93" r="4.58"/><circle class="cls-2" cx="188.75" cy="44.52" r="4.58"/><circle class="cls-2" cx="157.64" cy="4.58" r="4.58"/><circle class="cls-1" cx="166.44" cy="188.97" r="9.09"/></g></g></svg>