<svg xmlns="http://www.w3.org/2000/svg" xmlns:xlink="http://www.w3.org/1999/xlink" viewBox="0 0 54.53 42"><defs><style>.cls-1{fill:#fff;}.cls-2{fill:url(#linear-gradient);}.cls-3{fill:url(#linear-gradient-2);}.cls-4{fill:url(#linear-gradient-3);}.cls-5{fill:url(#linear-gradient-4);}.cls-6{fill:url(#linear-gradient-5);}</style><linearGradient id="linear-gradient" x1="2299.64" y1="10140.2" x2="2306.95" y2="10140.2" gradientTransform="matrix(2.05, 0, 0, -2.05, -4675.88, 20802.69)" gradientUnits="userSpaceOnUse"><stop offset="0" stop-color="#007940"/><stop offset="0.23" stop-color="#00873f"/><stop offset="0.74" stop-color="#40a737"/><stop offset="1" stop-color="#5cb531"/></linearGradient><linearGradient id="linear-gradient-2" x1="2299.64" y1="10141.33" x2="2306.95" y2="10141.33" xlink:href="#linear-gradient"/><linearGradient id="linear-gradient-3" x1="2299.64" y1="10142.58" x2="2306.95" y2="10142.58" xlink:href="#linear-gradient"/><linearGradient id="linear-gradient-4" x1="2283.28" y1="10141.34" x2="2290.7" y2="10141.34" gradientTransform="matrix(2.05, 0, 0, -2.05, -4675.88, 20802.69)" gradientUnits="userSpaceOnUse"><stop offset="0" stop-color="#1f286f"/><stop offset="0.48" stop-color="#004e94"/><stop offset="0.83" stop-color="#0066b1"/><stop offset="1" stop-color="#006fbc"/></linearGradient><linearGradient id="linear-gradient-5" x1="2291.42" y1="10141.32" x2="2298.63" y2="10141.32" gradientTransform="matrix(2.05, 0, 0, -2.05, -4675.88, 20802.69)" gradientUnits="userSpaceOnUse"><stop offset="0" stop-color="#6c2c2f"/><stop offset="0.17" stop-color="#882730"/><stop offset="0.57" stop-color="#be1833"/><stop offset="0.86" stop-color="#dc0436"/><stop offset="1" stop-color="#e60039"/></linearGradient></defs><g id="Layer_2" data-name="Layer 2"><g id="AW"><g id="g6321"><g id="g6323"><path id="path6325" class="cls-1" d="M54.53,33.53A8.48,8.48,0,0,1,46.07,42H0V8.47A8.48,8.48,0,0,1,8.47,0H54.53V33.53Z"/><g id="g6327"><path id="path6338" class="cls-2" d="M39.53,24.93H43l.44,0a1.56,1.56,0,0,0,1.23-1.57,1.61,1.61,0,0,0-1.23-1.56,1.5,1.5,0,0,0-.44,0h-3.5v3.2Z"/><path id="path6349" class="cls-3" d="M42.63,2.83A6.06,6.06,0,0,0,36.57,8.9v6.3h8.56a3.76,3.76,0,0,1,.6,0c1.94.1,3.37,1.1,3.37,2.84a2.83,2.83,0,0,1-2.77,2.76v.07c2,.13,3.47,1.23,3.47,2.93s-1.67,3-3.87,3h-9.4V39.2h8.9a6.07,6.07,0,0,0,6.07-6.07V2.83Z"/><path id="path6360" class="cls-4" d="M44.27,18.47A1.43,1.43,0,0,0,43,17l-.33,0H39.53v2.93H42.7a1,1,0,0,0,.33,0A1.42,1.42,0,0,0,44.27,18.47Z"/></g><path id="path6371" class="cls-5" d="M9.1,2.83A6.07,6.07,0,0,0,3,8.9v15a12,12,0,0,0,5.24,1.36,2.9,2.9,0,0,0,3.23-3V15.17h5.2v7c0,2.73-1.7,5-7.47,5A25.44,25.44,0,0,1,3,26.4V39.17h8.9A6.07,6.07,0,0,0,18,33.1V2.83Z"/><path id="path6384" class="cls-6" d="M25.87,2.83A6.07,6.07,0,0,0,19.8,8.9v7.93c1.53-1.3,4.2-2.13,8.5-1.93a27.28,27.28,0,0,1,4.77.73V18.2a11.57,11.57,0,0,0-4.6-1.33c-3.27-.24-5.24,1.36-5.24,4.16s2,4.44,5.24,4.17a12.09,12.09,0,0,0,4.6-1.33v2.56a26.22,26.22,0,0,1-4.77.74c-4.3.2-7-.64-8.5-1.94v14h8.9a6.07,6.07,0,0,0,6.07-6.06V2.83Z"/></g></g></g></g></svg>