<svg xmlns="http://www.w3.org/2000/svg" viewBox="0 0 53.99 42"><defs><style>.cls-1{fill:#010101;}.cls-2{fill:#f16522;}.cls-3{fill:#e41b24;}.cls-4{fill:#f89e1b;}</style></defs><g id="Layer_2" data-name="Layer 2"><g id="AW"><path class="cls-1" d="M9.82,41.76V39a1.65,1.65,0,0,0-1.74-1.76A1.72,1.72,0,0,0,6.52,38a1.62,1.62,0,0,0-1.46-.79,1.46,1.46,0,0,0-1.3.66v-.55h-1v4.43h1V39.31a1,1,0,0,1,1.08-1.18c.64,0,1,.42,1,1.17v2.46h1V39.31a1.05,1.05,0,0,1,1.09-1.18c.65,0,1,.42,1,1.17v2.46Zm14.4-4.43H22.65V36h-1v1.34h-.9v.88h.9v2c0,1,.39,1.64,1.53,1.64a2.31,2.31,0,0,0,1.21-.34l-.28-.83a1.74,1.74,0,0,1-.85.25c-.48,0-.64-.29-.64-.74v-2h1.57Zm8.23-.11a1.3,1.3,0,0,0-1.17.65v-.54h-1v4.43h1V39.28c0-.73.31-1.14.94-1.14a1.68,1.68,0,0,1,.61.11l.29-.91a2.12,2.12,0,0,0-.68-.12M20,37.68a3.4,3.4,0,0,0-1.81-.46c-1.12,0-1.84.54-1.84,1.42,0,.72.53,1.17,1.52,1.31l.46.06c.53.07.78.21.78.46s-.35.54-1,.54a2.39,2.39,0,0,1-1.48-.46l-.45.75a3.18,3.18,0,0,0,1.92.57c1.28,0,2-.6,2-1.44s-.59-1.19-1.55-1.33L18.13,39c-.42-.06-.75-.14-.75-.44s.31-.52.84-.52a3,3,0,0,1,1.38.38Zm25.82-.46a1.3,1.3,0,0,0-1.17.65v-.54h-1v4.43h1V39.28c0-.73.32-1.14,1-1.14a1.66,1.66,0,0,1,.6.11l.29-.91a2.12,2.12,0,0,0-.68-.12M33.42,39.55a2.24,2.24,0,0,0,2.36,2.32,2.33,2.33,0,0,0,1.6-.53l-.47-.77a1.92,1.92,0,0,1-1.15.39,1.42,1.42,0,0,1,0-2.83,1.93,1.93,0,0,1,1.15.4l.47-.78a2.33,2.33,0,0,0-1.6-.53,2.24,2.24,0,0,0-2.36,2.33m9,0V37.33h-1v.54a1.67,1.67,0,0,0-1.4-.65,2.33,2.33,0,0,0,0,4.65,1.67,1.67,0,0,0,1.4-.65v.54h1Zm-3.59,0A1.34,1.34,0,1,1,40.2,41a1.33,1.33,0,0,1-1.34-1.41M27.23,37.22a2.33,2.33,0,0,0,.06,4.65,2.67,2.67,0,0,0,1.82-.62l-.47-.71a2.1,2.1,0,0,1-1.29.46A1.24,1.24,0,0,1,26,39.92h3.29c0-.12,0-.24,0-.37a2.13,2.13,0,0,0-2.1-2.33m0,.86a1.1,1.1,0,0,1,1.12,1.08H26a1.14,1.14,0,0,1,1.18-1.08m24.18,1.47v-4h-1v2.32a1.68,1.68,0,0,0-1.4-.65,2.33,2.33,0,0,0,0,4.65,1.68,1.68,0,0,0,1.4-.65v.54h1Zm-3.59,0A1.34,1.34,0,1,1,49.15,41a1.33,1.33,0,0,1-1.35-1.41m-32.55,0V37.33h-1v.54a1.68,1.68,0,0,0-1.4-.65,2.33,2.33,0,0,0,0,4.65,1.68,1.68,0,0,0,1.4-.65v.54h1Zm-3.58,0A1.34,1.34,0,1,1,13,41a1.33,1.33,0,0,1-1.34-1.41M53,41.12a.47.47,0,0,1,.17,0,.5.5,0,0,1,.14.1.45.45,0,0,1,.1.14.38.38,0,0,1,0,.34.45.45,0,0,1-.1.14.5.5,0,0,1-.14.1A.47.47,0,0,1,53,42a.48.48,0,0,1-.18,0,.5.5,0,0,1-.14-.1.71.71,0,0,1-.1-.14.5.5,0,0,1,0-.34.71.71,0,0,1,.1-.14.5.5,0,0,1,.14-.1.48.48,0,0,1,.18,0m0,.78.13,0,.11-.08a.3.3,0,0,0,.07-.11.3.3,0,0,0,0-.26.3.3,0,0,0-.07-.11l-.11-.08-.13,0-.14,0-.11.08a.3.3,0,0,0-.07.11.3.3,0,0,0,0,.26.3.3,0,0,0,.07.11l.11.08.14,0m0-.55a.22.22,0,0,1,.13,0,.13.13,0,0,1,0,.09.1.1,0,0,1,0,.09.19.19,0,0,1-.09,0l.13.15h-.1L53,41.61h0v.15h-.09v-.41Zm-.1.08v.11h.16a.06.06,0,0,0,0-.09h-.16Z"/><rect class="cls-2" x="19.7" y="3.57" width="14.6" height="26.24"/><path class="cls-3" d="M20.62,16.69A16.65,16.65,0,0,1,27,3.57a16.69,16.69,0,1,0-10.32,29.8A16.59,16.59,0,0,0,27,29.8a16.65,16.65,0,0,1-6.38-13.11"/><path class="cls-4" d="M54,16.68A16.68,16.68,0,0,1,27,29.8,16.69,16.69,0,0,0,27,3.57,16.68,16.68,0,0,1,54,16.68M52.4,27v-.53h.22v-.11h-.55v.11h.21V27Zm1.07,0v-.64H53.3l-.19.44-.2-.44h-.16V27h.11v-.48l.19.42h.12l.18-.42V27Z"/></g></g></svg>