<svg xmlns="http://www.w3.org/2000/svg" viewBox="0 0 208.26 55.87"><defs><style>.cls-1{fill:#fff;}</style></defs><g id="Layer_2" data-name="Layer 2"><g id="AW"><path class="cls-1" d="M77.23,50.58c-2.44,0-4.26-.6-5.44-1.8A7,7,0,0,1,70,43.63V15.84H80.45V40.93a2.07,2.07,0,0,0,2.31,2.38h2.38v7.27Z"/><path class="cls-1" d="M96,50.58,88.49,15.84h9.58l3.61,20.52L106.63,22V15.84h7.2l6,20.52,3.53-20.52h9.52l-7.59,34.74h-8.75l-5.66-18.4-6.11,18.4Z"/><path class="cls-1" d="M146.77,51.22a16,16,0,0,1-6.05-1.09,9.17,9.17,0,0,1-4.31-3.54,11.53,11.53,0,0,1-1.61-6.43c0-3.56,1.19-6.3,3.57-8.2s5.74-2.87,10.07-2.87h9.26V27.81a4,4,0,0,0-1.77-3.7Q154.16,23,150.05,23a39,39,0,0,0-6,.45,38.21,38.21,0,0,0-5.76,1.35V17.32a42.7,42.7,0,0,1,6.4-1.51A44.13,44.13,0,0,1,152,15.2q8,0,12.06,3.41t4.09,10.48V50.58H157.7V36.43h-7.65a7.66,7.66,0,0,0-3.76.77,3.13,3.13,0,0,0-1.39,3,3.12,3.12,0,0,0,1.19,2.83,7.08,7.08,0,0,0,3.77.77c.72,0,1.42,0,2.09-.09a8,8,0,0,0,1.77-.36v7A21.73,21.73,0,0,1,146.77,51.22Z"/><path class="cls-1" d="M138.6,11.66l.51-7H168v7Z"/><path class="cls-1" d="M186.84,51.22a11.83,11.83,0,0,1-8.75-3.28q-3.27-3.28-3.28-9.26V15.84h10.36V37.78a5.91,5.91,0,0,0,1.35,4.31,5.6,5.6,0,0,0,4.12,1.35,9.69,9.69,0,0,0,4.08-.9,9.84,9.84,0,0,0,3.12-2.13V15.84h10.42V50.58h-9.58l-.45-3a18.07,18.07,0,0,1-5,2.66A19,19,0,0,1,186.84,51.22Z"/><path class="cls-1" d="M15.09,22.77a7.9,7.9,0,0,0,.07.85,1.76,1.76,0,0,0,.11.36.92.92,0,0,0,.19.25,1.18,1.18,0,0,0,.28.22h0a1.28,1.28,0,0,0,1,.11,1.18,1.18,0,0,0,.54-.4,4.85,4.85,0,0,0,.47-.71q.15-.24.27-.48l4-7.27c.11-.2.22-.41.34-.61a12.3,12.3,0,0,1,1-1.54A8,8,0,0,1,25.06,12a7.73,7.73,0,0,1,2.17-1,8.16,8.16,0,0,1,2.25-.32h0a7.92,7.92,0,0,1,5.61,2.33,7.7,7.7,0,0,1,1.41,2,7.48,7.48,0,0,1,.74,2.21A11.61,11.61,0,0,1,37.42,19c0,.23,0,.46,0,.69v14.2l12.6-23a28.29,28.29,0,0,0-2.34-2.67,27.94,27.94,0,0,0-32.6-5V22.77Z"/><path class="cls-1" d="M40.31,42.53a6.6,6.6,0,0,1-.57.84,5,5,0,0,1-1.09,1,4.84,4.84,0,0,1-1.39.67,5.14,5.14,0,0,1-1.45.21,5.05,5.05,0,0,1-3.59-1.49,5.22,5.22,0,0,1-.92-1.27,5.09,5.09,0,0,1-.47-1.41,7.71,7.71,0,0,1-.1-1V19.68c0-.18,0-.37,0-.55a6.09,6.09,0,0,0-.07-.85,1.28,1.28,0,0,0-.11-.36,1.44,1.44,0,0,0-.18-.25,1.3,1.3,0,0,0-.89-.36h0a1,1,0,0,0-.35.06.79.79,0,0,0-.28.13,1.18,1.18,0,0,0-.27.26,6.71,6.71,0,0,0-.47.71l-.27.49-4,7.26-.35.61a12.85,12.85,0,0,1-1,1.54A8,8,0,0,1,20.76,30a7.65,7.65,0,0,1-2.18,1,7.87,7.87,0,0,1-6-.64h0A8.24,8.24,0,0,1,10.71,29,7.53,7.53,0,0,1,9.3,27a8.1,8.1,0,0,1-.74-2.21A14.2,14.2,0,0,1,8.39,23c0-.23,0-.46,0-.69V8a1.8,1.8,0,0,1-.2.19A27.94,27.94,0,1,0,55.87,27.94a27.69,27.69,0,0,0-1.95-10.25Z"/></g></g></svg>