<svg xmlns="http://www.w3.org/2000/svg" xmlns:xlink="http://www.w3.org/1999/xlink" viewBox="0 0 77.41 25"><defs><style>.cls-1{fill:none;}.cls-2{clip-path:url(#clip-path);}.cls-3{fill:url(#linear-gradient);}</style><clipPath id="clip-path" transform="translate(0 0)"><path class="cls-1" d="M22.82.44,16.31,16.9l-2.63-14A2.92,2.92,0,0,0,10.79.44H.15L0,1.14A26.22,26.22,0,0,1,6.17,3.2,2.67,2.67,0,0,1,7.66,5.32l5,19.3h6.62L29.39.44Zm9.25,0L26.9,24.62h6.26L38.33.44ZM67.94,7l1.89,9.07H64.64ZM67,.44a2.84,2.84,0,0,0-2.66,1.78L55,24.62h6.57L62.84,21h8l.75,3.61h5.79L72.36.44ZM40,8c0,3.49,3.11,5.43,5.48,6.58s3.25,1.95,3.24,3c0,1.62-1.94,2.34-3.74,2.36a13.2,13.2,0,0,1-6.43-1.52l-1.13,5.3a19,19,0,0,0,7,1.28C51,25,55.28,21.75,55.3,16.73c0-6.38-8.83-6.74-8.77-9.59,0-.86.85-1.79,2.66-2A11.74,11.74,0,0,1,55.35,6.2l1.1-5.13A16.93,16.93,0,0,0,50.6,0C44.42,0,40.07,3.29,40,8"/></clipPath><linearGradient id="linear-gradient" x1="5475.55" y1="7069.48" x2="5476.16" y2="7069.48" gradientTransform="matrix(126.55, 0, 0, -126.55, -692905.99, 894623.94)" gradientUnits="userSpaceOnUse"><stop offset="0" stop-color="#241f5d"/><stop offset="1" stop-color="#034ea1"/></linearGradient></defs><g id="Layer_2" data-name="Layer 2"><g id="AW"><g class="cls-2"><rect class="cls-3" width="77.41" height="25"/></g></g></g></svg>